<?xml version="1.0" standalone="no"?>
<!DOCTYPE svg PUBLIC "-//W3C//DTD SVG 1.1//EN" "http://www.w3.org/Graphics/SVG/1.1/DTD/svg11.dtd">
<svg width="210px" height="380px" version="1.1" xmlns="http://www.w3.org/2000/svg" xmlns:xlink="http://www.w3.org/1999/xlink" xml:space="preserve" style="fill-rule:evenodd;clip-rule:evenodd;stroke-linecap:round;stroke-linejoin:round;stroke-miterlimit:1.41421;">
    <g id="Panel">
        <rect id="Background" x="0" y="0.013" width="210" height="380" style="fill:black;"/>
        <g id="CURVES">
            <g>
                <path d="M48.237,-16.949c-10.134,53.253 1.485,95.689 16.789,137.765c15.831,43.529 3.58,66.178 -13.919,143.666c-17.5,77.489 20.17,144.36 20.17,144.36" style="fill:none;stroke-width:1px;stroke:rgb(255,193,144);"/>
                <path d="M63.045,-16.949c-10.134,53.253 1.485,95.689 16.789,137.765c15.831,43.529 3.58,66.178 -13.92,143.666c-17.499,77.489 20.17,144.36 20.17,144.36" style="fill:none;stroke-width:1px;stroke:rgb(187,187,187);"/>
                <path d="M55.707,-16.949c-10.134,53.253 1.485,95.689 16.789,137.765c15.832,43.529 3.58,66.178 -13.919,143.666c-17.5,77.489 20.17,144.36 20.17,144.36" style="fill:none;stroke-width:1px;stroke:rgb(187,187,187);"/>
                <path d="M70.515,-16.949c-10.134,53.253 1.485,95.689 16.789,137.765c15.831,43.529 3.58,66.178 -13.919,143.666c-17.5,77.489 20.17,144.36 20.17,144.36" style="fill:none;stroke-width:1px;stroke:rgb(187,187,187);"/>
                <path d="M18.357,-16.949c-10.134,53.253 1.485,95.689 16.788,137.765c15.832,43.529 3.581,66.178 -13.919,143.666c-17.5,77.489 20.17,144.36 20.17,144.36" style="fill:none;stroke-width:1px;stroke:rgb(255,193,144);"/>
                <path d="M33.164,-16.949c-10.133,53.253 1.486,95.689 16.789,137.765c15.832,43.529 3.58,66.178 -13.919,143.666c-17.5,77.489 20.17,144.36 20.17,144.36" style="fill:none;stroke-width:1px;stroke:rgb(187,187,187);"/>
                <path d="M25.827,-16.949c-10.134,53.253 1.485,95.689 16.788,137.765c15.832,43.529 3.581,66.178 -13.919,143.666c-17.499,77.489 20.17,144.36 20.17,144.36" style="fill:none;stroke-width:1px;stroke:rgb(187,187,187);"/>
                <path d="M40.635,-16.949c-10.134,53.253 1.485,95.689 16.788,137.765c15.832,43.529 3.581,66.178 -13.919,143.666c-17.5,77.489 20.17,144.36 20.17,144.36" style="fill:none;stroke-width:1px;stroke:rgb(187,187,187);"/>
                <path d="M-10.694,-16.949c-10.134,53.253 1.485,95.689 16.789,137.765c15.831,43.529 3.58,66.178 -13.92,143.666c-17.499,77.489 20.171,144.36 20.171,144.36" style="fill:none;stroke-width:1px;stroke:rgb(255,193,144);"/>
                <path d="M4.114,-16.949c-10.134,53.253 1.485,95.689 16.788,137.765c15.832,43.529 3.581,66.178 -13.919,143.666c-17.499,77.489 20.17,144.36 20.17,144.36" style="fill:none;stroke-width:1px;stroke:rgb(187,187,187);"/>
                <path d="M-3.224,-16.949c-10.134,53.253 1.485,95.689 16.789,137.765c15.832,43.529 3.58,66.178 -13.919,143.666c-17.5,77.489 20.17,144.36 20.17,144.36" style="fill:none;stroke-width:1px;stroke:rgb(187,187,187);"/>
                <path d="M11.584,-16.949c-10.134,53.253 1.485,95.689 16.789,137.765c15.831,43.529 3.58,66.178 -13.92,143.666c-17.499,77.489 20.171,144.36 20.171,144.36" style="fill:none;stroke-width:1px;stroke:rgb(187,187,187);"/>
                <path d="M-24.937,-16.949c-10.133,53.253 1.485,95.689 16.789,137.765c15.832,43.529 3.58,66.178 -13.919,143.666c-17.5,77.489 20.17,144.36 20.17,144.36" style="fill:none;stroke-width:1px;stroke:rgb(187,187,187);"/>
                <path d="M-17.466,-16.949c-10.134,53.253 1.485,95.689 16.788,137.765c15.832,43.529 3.58,66.178 -13.919,143.666c-17.5,77.489 20.17,144.36 20.17,144.36" style="fill:none;stroke-width:1px;stroke:rgb(187,187,187);"/>
                <path d="M147.803,256.877l-155.254,-195.884l-71.038,56.304l155.254,195.883l71.038,-56.303Z" style="fill:black;stroke-width:1px;stroke:black;"/>
                <path d="M225.088,368.887l-239.597,-302.299l-59.531,47.183l239.597,302.3l59.531,-47.184Z" style="fill:black;stroke-width:1px;stroke:white;"/>
            </g>
        </g>
        <g id="Lines">
            <path d="M66.567,86.506l23.933,-0.025" style="fill:none;stroke-width:1px;stroke:white;"/>
            <path d="M119.848,86.462l42.121,-0.036" style="fill:none;stroke-width:1px;stroke:white;"/>
            <path d="M56.865,66.577l-7.24,-0.127" style="fill:none;stroke-width:1px;stroke:white;"/>
            <path d="M57.459,107.433l-8.88,-0.002" style="fill:none;stroke-width:1px;stroke:white;"/>
        </g>
        <g id="Syms">
            <path d="M150.36,106.487l5.354,0" style="fill:none;stroke-width:1px;stroke:white;"/>
            <path d="M196.495,106.512l6.133,0" style="fill:none;stroke-width:1px;stroke:white;"/>
            <path d="M199.503,103.44l0.026,6.101" style="fill:none;stroke-width:1px;stroke:white;"/>
        </g>
        <g id="Layer1">
            <path d="M191.941,304.327c0,-2.365 -1.919,-4.285 -4.284,-4.285l-130.162,0c-2.365,0 -4.284,1.92 -4.284,4.285l0,36.296c0,2.364 1.919,4.284 4.284,4.284l130.162,0c2.365,0 4.284,-1.92 4.284,-4.284l0,-36.296Z" style="fill:white;"/>
            <path d="M188.652,305.962c0,-2.099 -1.704,-3.803 -3.803,-3.803l-125.203,0c-2.099,0 -3.803,1.704 -3.803,3.803l0,32.22c0,2.099 1.704,3.803 3.803,3.803l125.203,0c2.099,0 3.803,-1.704 3.803,-3.803l0,-32.22Z" style="fill:rgb(153,118,75);"/>
        </g>
        <g id="TEXT">
            <path d="M10.576,60.046l-1.113,0l-0.442,-1.151l-2.026,0l-0.418,1.151l-1.085,0l1.973,-5.067l1.082,0l2.029,5.067ZM8.693,58.041l-0.699,-1.88l-0.684,1.88l1.383,0Z" style="fill:white;fill-rule:nonzero;"/>
            <path d="M11.116,54.979l1.87,0c0.421,0 0.743,0.032 0.964,0.096c0.297,0.088 0.552,0.243 0.764,0.467c0.212,0.224 0.373,0.497 0.484,0.821c0.11,0.324 0.166,0.723 0.166,1.198c0,0.417 -0.052,0.776 -0.156,1.078c-0.127,0.369 -0.307,0.667 -0.542,0.895c-0.178,0.173 -0.418,0.308 -0.719,0.405c-0.226,0.071 -0.528,0.107 -0.906,0.107l-1.925,0l0,-5.067ZM12.139,55.836l0,3.356l0.764,0c0.285,0 0.492,-0.016 0.618,-0.048c0.166,-0.042 0.304,-0.112 0.413,-0.211c0.11,-0.099 0.199,-0.262 0.268,-0.489c0.069,-0.227 0.104,-0.537 0.104,-0.928c0,-0.392 -0.035,-0.693 -0.104,-0.902c-0.069,-0.21 -0.166,-0.374 -0.29,-0.491c-0.124,-0.118 -0.282,-0.197 -0.474,-0.239c-0.142,-0.032 -0.422,-0.048 -0.84,-0.048l-0.459,0Z" style="fill:white;fill-rule:nonzero;"/>
            <path d="M22.113,46.593c-0.18,0 -0.355,-0.01 -0.527,-0.03c-0.171,-0.019 -0.342,-0.052 -0.513,-0.099c-0.348,-0.088 -0.673,-0.218 -0.973,-0.39l0,-1.506c0.357,0.277 0.701,0.482 1.031,0.617c0.337,0.135 0.661,0.203 0.973,0.203c0.331,0 0.587,-0.082 0.771,-0.247c0.18,-0.161 0.27,-0.389 0.27,-0.682c0,-0.227 -0.06,-0.421 -0.18,-0.582c-0.063,-0.086 -0.139,-0.161 -0.228,-0.225c-0.088,-0.064 -0.187,-0.119 -0.295,-0.165l-0.653,-0.272c-0.345,-0.145 -0.629,-0.291 -0.851,-0.437c-0.223,-0.147 -0.392,-0.296 -0.509,-0.447c-0.238,-0.3 -0.356,-0.713 -0.356,-1.24c0,-0.671 0.195,-1.196 0.585,-1.575c0.394,-0.382 0.928,-0.573 1.604,-0.573c0.333,0 0.645,0.036 0.935,0.109c0.29,0.072 0.595,0.189 0.916,0.35l0,1.423c-0.576,-0.451 -1.159,-0.677 -1.747,-0.677c-0.325,0 -0.569,0.071 -0.735,0.212c-0.171,0.142 -0.256,0.343 -0.256,0.603c0,0.207 0.063,0.377 0.189,0.509c0.06,0.065 0.149,0.133 0.268,0.202c0.118,0.069 0.289,0.15 0.511,0.242l0.572,0.237c0.544,0.221 0.942,0.507 1.194,0.859c0.255,0.359 0.383,0.822 0.383,1.388c0,0.728 -0.201,1.274 -0.604,1.64c-0.402,0.369 -0.994,0.553 -1.775,0.553Z" style="fill:white;fill-rule:nonzero;"/>
            <path d="M25.663,39.076l1.329,0l0,2.81l1.662,0l0,-2.81l1.329,0l0,7.374l-1.329,0l0,-3.28l-1.662,0l0,3.28l-1.329,0l0,-7.374Z" style="fill:white;fill-rule:nonzero;"/>
            <path d="M32.564,39.076l1.626,0l1.815,7.374l-1.329,0l-0.414,-1.823l-1.779,0l-0.406,1.823l-1.328,0l1.815,-7.374ZM34.005,43.427l-0.63,-3.017l-0.626,3.017l1.256,0Z" style="fill:white;fill-rule:nonzero;"/>
            <path d="M36.902,39.076l1.824,0c0.925,0 1.593,0.181 2.005,0.544c0.405,0.359 0.608,0.946 0.608,1.763c0,0.816 -0.203,1.404 -0.608,1.763c-0.412,0.362 -1.08,0.543 -2.005,0.543l-0.495,0l0,2.761l-1.329,0l0,-7.374ZM38.776,42.464c0.438,0 0.744,-0.08 0.919,-0.242c0.174,-0.161 0.261,-0.441 0.261,-0.839c0,-0.399 -0.087,-0.679 -0.261,-0.84c-0.175,-0.161 -0.481,-0.242 -0.919,-0.242l-0.545,0l0,2.163l0.545,0Z" style="fill:white;fill-rule:nonzero;"/>
            <path d="M42.465,39.076l4.189,0l0,1.284l-2.86,0l0,1.591l2.59,0l0,1.284l-2.59,0l0,1.931l2.86,0l0,1.284l-4.189,0l0,-7.374Z" style="fill:white;fill-rule:nonzero;"/>
            <path d="M19.789,209.485l1.157,-0.127c0.07,0.438 0.211,0.76 0.424,0.965c0.213,0.206 0.5,0.308 0.862,0.308c0.383,0 0.672,-0.091 0.866,-0.274c0.194,-0.183 0.291,-0.396 0.291,-0.641c0,-0.157 -0.041,-0.291 -0.122,-0.401c-0.082,-0.11 -0.225,-0.206 -0.428,-0.288c-0.139,-0.054 -0.457,-0.151 -0.952,-0.29c-0.638,-0.178 -1.085,-0.397 -1.342,-0.657c-0.362,-0.365 -0.543,-0.811 -0.543,-1.337c0,-0.338 0.085,-0.654 0.255,-0.949c0.17,-0.294 0.415,-0.519 0.736,-0.673c0.32,-0.154 0.706,-0.231 1.159,-0.231c0.739,0 1.296,0.183 1.669,0.548c0.374,0.366 0.57,0.854 0.589,1.464l-1.189,0.059c-0.051,-0.341 -0.161,-0.587 -0.328,-0.736c-0.167,-0.15 -0.418,-0.225 -0.753,-0.225c-0.346,0 -0.616,0.08 -0.812,0.241c-0.126,0.102 -0.189,0.24 -0.189,0.412c0,0.157 0.059,0.291 0.177,0.403c0.15,0.142 0.514,0.29 1.093,0.444c0.578,0.154 1.006,0.314 1.284,0.478c0.277,0.165 0.494,0.39 0.651,0.675c0.156,0.286 0.235,0.639 0.235,1.059c0,0.38 -0.094,0.737 -0.282,1.069c-0.187,0.332 -0.452,0.579 -0.795,0.741c-0.343,0.161 -0.77,0.242 -1.282,0.242c-0.745,0 -1.317,-0.194 -1.716,-0.582c-0.399,-0.388 -0.637,-0.954 -0.715,-1.697Z" style="fill:white;fill-rule:nonzero;"/>
            <path d="M25.583,211.646l0,-6.643l1.19,0l0,2.615l2.33,0l0,-2.615l1.189,0l0,6.643l-1.189,0l0,-2.904l-2.33,0l0,2.904l-1.19,0Z" style="fill:white;fill-rule:nonzero;"/>
            <path d="M36.834,211.646l-1.294,0l-0.514,-1.509l-2.355,0l-0.486,1.509l-1.262,0l2.295,-6.643l1.257,0l2.359,6.643ZM34.644,209.018l-0.812,-2.465l-0.795,2.465l1.607,0Z" style="fill:white;fill-rule:nonzero;"/>
            <path d="M37.465,211.646l0,-6.643l1.908,0c0.724,0 1.195,0.034 1.415,0.1c0.337,0.1 0.62,0.317 0.847,0.65c0.228,0.334 0.342,0.765 0.342,1.294c0,0.408 -0.066,0.751 -0.197,1.029c-0.131,0.278 -0.298,0.496 -0.5,0.654c-0.202,0.159 -0.408,0.264 -0.617,0.315c-0.284,0.064 -0.695,0.096 -1.233,0.096l-0.776,0l0,2.505l-1.189,0ZM38.654,206.127l0,1.885l0.651,0c0.469,0 0.782,-0.034 0.94,-0.104c0.158,-0.069 0.282,-0.178 0.372,-0.326c0.09,-0.148 0.134,-0.32 0.134,-0.517c0,-0.241 -0.062,-0.441 -0.188,-0.598c-0.126,-0.157 -0.286,-0.255 -0.479,-0.294c-0.142,-0.031 -0.427,-0.046 -0.855,-0.046l-0.575,0Z" style="fill:white;fill-rule:nonzero;"/>
            <path d="M42.953,211.646l0,-6.643l4.368,0l0,1.124l-3.178,0l0,1.473l2.957,0l0,1.119l-2.957,0l0,1.808l3.291,0l0,1.119l-4.481,0Z" style="fill:white;fill-rule:nonzero;"/>
            <path d="M26.404,266.731l0,-5.282l-1.737,0l0,-1.076l4.65,0l0,1.076l-1.732,0l0,5.282l-1.181,0Z" style="fill:white;fill-rule:nonzero;"/>
            <path d="M30.084,266.731l0,-6.358l2.486,0c0.626,0 1.08,0.057 1.364,0.171c0.283,0.115 0.51,0.318 0.68,0.61c0.17,0.292 0.256,0.626 0.256,1.002c0,0.477 -0.13,0.871 -0.388,1.181c-0.258,0.311 -0.644,0.507 -1.157,0.588c0.255,0.162 0.466,0.34 0.632,0.533c0.167,0.194 0.391,0.538 0.673,1.033l0.715,1.24l-1.413,0l-0.855,-1.384c-0.303,-0.494 -0.511,-0.806 -0.622,-0.934c-0.112,-0.129 -0.23,-0.217 -0.356,-0.265c-0.125,-0.047 -0.323,-0.071 -0.594,-0.071l-0.24,0l0,2.654l-1.181,0ZM31.265,263.062l0.874,0c0.567,0 0.921,-0.026 1.062,-0.078c0.141,-0.052 0.252,-0.142 0.331,-0.269c0.08,-0.127 0.12,-0.286 0.12,-0.477c0,-0.214 -0.052,-0.387 -0.158,-0.518c-0.105,-0.132 -0.253,-0.215 -0.445,-0.25c-0.095,-0.014 -0.383,-0.021 -0.862,-0.021l-0.922,0l0,1.613Z" style="fill:white;fill-rule:nonzero;"/>
            <rect x="35.947" y="260.373" width="1.181" height="6.358" style="fill:white;fill-rule:nonzero;"/>
            <path d="M40.976,264.393l0,-1.071l2.547,0l0,2.533c-0.247,0.26 -0.606,0.489 -1.076,0.687c-0.469,0.198 -0.945,0.297 -1.427,0.297c-0.612,0 -1.145,-0.139 -1.6,-0.418c-0.455,-0.279 -0.797,-0.678 -1.026,-1.197c-0.229,-0.519 -0.343,-1.084 -0.343,-1.694c0,-0.662 0.127,-1.25 0.383,-1.765c0.255,-0.514 0.629,-0.909 1.121,-1.184c0.376,-0.211 0.843,-0.316 1.401,-0.316c0.727,0 1.294,0.165 1.703,0.496c0.408,0.331 0.671,0.789 0.788,1.373l-1.173,0.238c-0.083,-0.312 -0.238,-0.558 -0.465,-0.739c-0.228,-0.181 -0.512,-0.271 -0.853,-0.271c-0.516,0 -0.926,0.178 -1.231,0.533c-0.305,0.356 -0.457,0.884 -0.457,1.583c0,0.755 0.154,1.321 0.463,1.698c0.309,0.377 0.713,0.566 1.214,0.566c0.247,0 0.495,-0.053 0.744,-0.158c0.249,-0.106 0.462,-0.234 0.641,-0.384l0,-0.807l-1.354,0Z" style="fill:white;fill-rule:nonzero;"/>
            <path d="M24.728,308.393l1.013,0.395c-0.155,0.694 -0.414,1.209 -0.775,1.546c-0.361,0.337 -0.82,0.505 -1.375,0.505c-0.687,0 -1.252,-0.288 -1.695,-0.865c-0.442,-0.577 -0.663,-1.365 -0.663,-2.366c0,-1.058 0.222,-1.88 0.667,-2.465c0.445,-0.586 1.03,-0.878 1.755,-0.878c0.633,0 1.147,0.23 1.542,0.689c0.236,0.272 0.412,0.662 0.53,1.171l-1.035,0.304c-0.061,-0.33 -0.188,-0.59 -0.383,-0.781c-0.194,-0.191 -0.43,-0.286 -0.707,-0.286c-0.384,0 -0.695,0.169 -0.934,0.507c-0.239,0.339 -0.358,0.886 -0.358,1.644c0,0.804 0.117,1.376 0.353,1.717c0.235,0.341 0.541,0.512 0.917,0.512c0.278,0 0.517,-0.108 0.717,-0.325c0.2,-0.217 0.344,-0.558 0.431,-1.024Z" style="fill:white;fill-rule:nonzero;"/>
            <path d="M26.666,310.731l0,-6.306l1.045,0l0,5.235l2.598,0l0,1.071l-3.643,0Z" style="fill:white;fill-rule:nonzero;"/>
            <path d="M30.842,307.591c0,-0.648 0.079,-1.191 0.236,-1.631c0.118,-0.323 0.279,-0.614 0.482,-0.871c0.204,-0.258 0.427,-0.448 0.669,-0.573c0.323,-0.167 0.695,-0.251 1.116,-0.251c0.762,0 1.372,0.29 1.83,0.871c0.458,0.582 0.687,1.39 0.687,2.425c0,1.026 -0.227,1.829 -0.682,2.409c-0.454,0.579 -1.061,0.869 -1.821,0.869c-0.77,0 -1.382,-0.288 -1.836,-0.865c-0.454,-0.577 -0.681,-1.371 -0.681,-2.383ZM31.919,307.548c0,0.72 0.135,1.265 0.406,1.637c0.27,0.371 0.614,0.557 1.03,0.557c0.417,0 0.759,-0.184 1.026,-0.553c0.267,-0.369 0.401,-0.921 0.401,-1.659c0,-0.728 -0.13,-1.272 -0.391,-1.63c-0.26,-0.359 -0.605,-0.538 -1.036,-0.538c-0.43,0 -0.777,0.181 -1.041,0.544c-0.264,0.363 -0.395,0.91 -0.395,1.642Z" style="fill:white;fill-rule:nonzero;"/>
            <path d="M39.989,308.393l1.013,0.395c-0.156,0.694 -0.414,1.209 -0.775,1.546c-0.361,0.337 -0.82,0.505 -1.375,0.505c-0.687,0 -1.252,-0.288 -1.695,-0.865c-0.442,-0.577 -0.663,-1.365 -0.663,-2.366c0,-1.058 0.222,-1.88 0.667,-2.465c0.445,-0.586 1.03,-0.878 1.754,-0.878c0.633,0 1.148,0.23 1.543,0.689c0.235,0.272 0.412,0.662 0.53,1.171l-1.035,0.304c-0.061,-0.33 -0.189,-0.59 -0.383,-0.781c-0.194,-0.191 -0.43,-0.286 -0.708,-0.286c-0.383,0 -0.694,0.169 -0.933,0.507c-0.239,0.339 -0.359,0.886 -0.359,1.644c0,0.804 0.118,1.376 0.353,1.717c0.236,0.341 0.542,0.512 0.918,0.512c0.278,0 0.517,-0.108 0.717,-0.325c0.2,-0.217 0.343,-0.558 0.431,-1.024Z" style="fill:white;fill-rule:nonzero;"/>
            <path d="M41.912,310.731l0,-6.358l1.045,0l0,2.823l2.111,-2.823l1.405,0l-1.948,2.476l2.054,3.882l-1.352,0l-1.422,-2.984l-0.848,1.063l0,1.921l-1.045,0Z" style="fill:white;fill-rule:nonzero;"/>
            <path d="M59.499,310.912l0,-5.744l1.201,0l0,2.261l2.354,0l0,-2.261l1.202,0l0,5.744l-1.202,0l0,-2.511l-2.354,0l0,2.511l-1.201,0Z" style="fill:black;fill-rule:nonzero;"/>
            <rect x="65.461" y="305.168" width="1.201" height="5.745" style="fill:black;fill-rule:nonzero;"/>
            <path d="M70.574,308.8l0,-0.968l2.59,0l0,2.289c-0.252,0.235 -0.616,0.442 -1.094,0.621c-0.478,0.179 -0.961,0.268 -1.451,0.268c-0.622,0 -1.165,-0.126 -1.627,-0.378c-0.463,-0.252 -0.811,-0.612 -1.043,-1.081c-0.233,-0.469 -0.349,-0.979 -0.349,-1.531c0,-0.598 0.13,-1.129 0.389,-1.594c0.26,-0.465 0.64,-0.822 1.141,-1.07c0.381,-0.191 0.856,-0.286 1.424,-0.286c0.739,0 1.316,0.149 1.731,0.448c0.415,0.3 0.683,0.713 0.802,1.241l-1.194,0.215c-0.083,-0.282 -0.241,-0.505 -0.472,-0.668c-0.232,-0.163 -0.521,-0.245 -0.867,-0.245c-0.525,0 -0.942,0.161 -1.252,0.482c-0.31,0.321 -0.465,0.798 -0.465,1.43c0,0.682 0.157,1.194 0.471,1.535c0.314,0.34 0.725,0.511 1.234,0.511c0.252,0 0.504,-0.048 0.757,-0.143c0.253,-0.095 0.47,-0.211 0.651,-0.347l0,-0.729l-1.376,0Z" style="fill:black;fill-rule:nonzero;"/>
            <path d="M74.276,310.912l0,-5.744l1.201,0l0,2.261l2.354,0l0,-2.261l1.201,0l0,5.744l-1.201,0l0,-2.511l-2.354,0l0,2.511l-1.201,0Z" style="fill:black;fill-rule:nonzero;"/>
            <path d="M95.528,310.912l0,-5.697l1.201,0l0,4.729l2.987,0l0,0.968l-4.188,0Z" style="fill:black;fill-rule:nonzero;"/>
            <path d="M100.329,308.075c0,-0.585 0.09,-1.076 0.272,-1.473c0.135,-0.293 0.319,-0.555 0.553,-0.788c0.235,-0.232 0.491,-0.405 0.77,-0.517c0.37,-0.151 0.798,-0.227 1.282,-0.227c0.877,0 1.578,0.262 2.104,0.787c0.527,0.526 0.79,1.256 0.79,2.191c0,0.927 -0.261,1.653 -0.784,2.177c-0.522,0.523 -1.22,0.785 -2.094,0.785c-0.884,0 -1.588,-0.26 -2.11,-0.781c-0.522,-0.522 -0.783,-1.239 -0.783,-2.154ZM101.566,308.036c0,0.651 0.156,1.144 0.467,1.479c0.311,0.336 0.706,0.504 1.185,0.504c0.479,0 0.872,-0.167 1.179,-0.5c0.307,-0.333 0.461,-0.832 0.461,-1.499c0,-0.658 -0.15,-1.149 -0.449,-1.473c-0.299,-0.324 -0.696,-0.486 -1.191,-0.486c-0.495,0 -0.894,0.164 -1.197,0.492c-0.303,0.328 -0.455,0.822 -0.455,1.483Z" style="fill:black;fill-rule:nonzero;"/>
            <path d="M107.881,310.912l-1.42,-5.744l1.23,0l0.896,3.946l1.088,-3.946l1.429,0l1.043,4.012l0.913,-4.012l1.209,0l-1.445,5.744l-1.274,0l-1.185,-4.294l-1.181,4.294l-1.303,0Z" style="fill:black;fill-rule:nonzero;"/>
            <path d="M133.513,305.168l1.252,0l0,3.111c0,0.494 0.016,0.814 0.047,0.96c0.054,0.235 0.181,0.424 0.383,0.566c0.202,0.143 0.478,0.214 0.828,0.214c0.355,0 0.623,-0.067 0.804,-0.202c0.18,-0.134 0.289,-0.3 0.326,-0.496c0.036,-0.196 0.055,-0.521 0.055,-0.975l0,-3.178l1.253,0l0,3.017c0,0.69 -0.034,1.177 -0.102,1.462c-0.068,0.284 -0.193,0.525 -0.375,0.721c-0.182,0.196 -0.425,0.352 -0.73,0.468c-0.304,0.116 -0.702,0.174 -1.193,0.174c-0.593,0 -1.042,-0.063 -1.348,-0.19c-0.307,-0.126 -0.549,-0.291 -0.726,-0.493c-0.178,-0.203 -0.295,-0.415 -0.352,-0.637c-0.081,-0.329 -0.122,-0.815 -0.122,-1.458l0,-3.064Z" style="fill:black;fill-rule:nonzero;"/>
            <path d="M139.794,310.912l0,-5.744l1.219,0l2.539,3.836l0,-3.836l1.164,0l0,5.744l-1.257,0l-2.501,-3.746l0,3.746l-1.164,0Z" style="fill:black;fill-rule:nonzero;"/>
            <rect x="146.003" y="305.168" width="1.253" height="5.745" style="fill:black;fill-rule:nonzero;"/>
            <path d="M172.457,305.168l2.211,0c0.438,0 0.765,0.019 0.98,0.057c0.215,0.037 0.407,0.116 0.577,0.237c0.17,0.12 0.312,0.28 0.425,0.48c0.113,0.2 0.17,0.424 0.17,0.672c0,0.269 -0.07,0.516 -0.21,0.74c-0.139,0.225 -0.329,0.393 -0.568,0.506c0.337,0.102 0.597,0.275 0.778,0.521c0.181,0.246 0.271,0.534 0.271,0.866c0,0.261 -0.058,0.515 -0.175,0.762c-0.117,0.247 -0.277,0.444 -0.479,0.592c-0.203,0.147 -0.453,0.238 -0.75,0.272c-0.186,0.021 -0.635,0.034 -1.347,0.039l-1.883,0l0,-5.744ZM173.574,306.124l0,1.328l0.732,0c0.435,0 0.706,-0.006 0.811,-0.019c0.192,-0.024 0.342,-0.092 0.451,-0.206c0.11,-0.114 0.165,-0.263 0.165,-0.449c0,-0.177 -0.048,-0.322 -0.142,-0.433c-0.094,-0.111 -0.235,-0.178 -0.421,-0.202c-0.11,-0.013 -0.429,-0.019 -0.955,-0.019l-0.641,0ZM173.574,308.408l0,1.536l1.034,0c0.403,0 0.658,-0.011 0.766,-0.035c0.166,-0.031 0.301,-0.108 0.406,-0.229c0.104,-0.122 0.156,-0.284 0.156,-0.488c0,-0.172 -0.04,-0.319 -0.12,-0.439c-0.081,-0.12 -0.197,-0.207 -0.349,-0.262c-0.153,-0.055 -0.483,-0.083 -0.991,-0.083l-0.902,0Z" style="fill:black;fill-rule:nonzero;"/>
            <rect x="178.001" y="305.168" width="1.117" height="5.745" style="fill:black;fill-rule:nonzero;"/>
            <path d="M54.725,267.091l0,-6.358l3.834,0l0,1.076l-2.705,0l0,1.505l2.335,0l0,1.075l-2.335,0l0,2.702l-1.129,0Z" style="fill:white;fill-rule:nonzero;"/>
            <path d="M59.494,267.091l0,-6.358l2.377,0c0.598,0 1.032,0.057 1.303,0.172c0.271,0.114 0.488,0.317 0.651,0.609c0.162,0.292 0.244,0.626 0.244,1.002c0,0.477 -0.124,0.871 -0.37,1.181c-0.247,0.311 -0.616,0.507 -1.107,0.588c0.244,0.162 0.446,0.34 0.605,0.534c0.159,0.193 0.373,0.537 0.643,1.032l0.683,1.24l-1.351,0l-0.816,-1.383c-0.29,-0.495 -0.489,-0.806 -0.596,-0.935c-0.106,-0.129 -0.22,-0.217 -0.339,-0.265c-0.12,-0.047 -0.309,-0.071 -0.569,-0.071l-0.228,0l0,2.654l-1.13,0ZM60.624,263.422l0.835,0c0.542,0 0.88,-0.026 1.015,-0.078c0.135,-0.052 0.24,-0.142 0.317,-0.269c0.076,-0.127 0.114,-0.286 0.114,-0.477c0,-0.214 -0.05,-0.387 -0.151,-0.518c-0.1,-0.132 -0.242,-0.215 -0.425,-0.25c-0.092,-0.014 -0.366,-0.021 -0.824,-0.021l-0.881,0l0,1.613Z" style="fill:white;fill-rule:nonzero;"/>
            <path d="M65.133,267.091l0,-6.358l4.148,0l0,1.076l-3.018,0l0,1.409l2.808,0l0,1.071l-2.808,0l0,1.731l3.124,0l0,1.071l-4.254,0Z" style="fill:white;fill-rule:nonzero;"/>
            <path d="M70.345,267.091l0,-6.358l4.147,0l0,1.076l-3.018,0l0,1.409l2.809,0l0,1.071l-2.809,0l0,1.731l3.125,0l0,1.071l-4.254,0Z" style="fill:white;fill-rule:nonzero;"/>
            <path d="M75.072,267.091l0,-1.158l2.938,-4.124l-2.606,0l0,-1.076l4.094,0l0,0.998l-3.064,4.289l3.182,0l0,1.071l-4.544,0Z" style="fill:white;fill-rule:nonzero;"/>
            <path d="M80.33,267.091l0,-6.358l4.147,0l0,1.076l-3.018,0l0,1.409l2.808,0l0,1.071l-2.808,0l0,1.731l3.125,0l0,1.071l-4.254,0Z" style="fill:white;fill-rule:nonzero;"/>
            <path d="M95.175,267.515l0,-6.239l3.795,0l0,1.056l-2.677,0l0,1.476l2.311,0l0,1.056l-2.311,0l0,2.651l-1.118,0Z" style="fill:white;fill-rule:nonzero;"/>
            <path d="M99.896,267.515l0,-6.239l2.352,0c0.592,0 1.022,0.056 1.29,0.168c0.268,0.112 0.483,0.312 0.644,0.598c0.161,0.287 0.242,0.614 0.242,0.983c0,0.468 -0.122,0.855 -0.367,1.16c-0.244,0.305 -0.609,0.497 -1.095,0.577c0.242,0.158 0.441,0.333 0.599,0.523c0.157,0.19 0.369,0.528 0.636,1.013l0.676,1.217l-1.337,0l-0.808,-1.358c-0.287,-0.485 -0.483,-0.79 -0.589,-0.917c-0.106,-0.126 -0.218,-0.212 -0.336,-0.259c-0.119,-0.047 -0.306,-0.071 -0.563,-0.071l-0.227,0l0,2.605l-1.117,0ZM101.013,263.915l0.828,0c0.536,0 0.871,-0.026 1.004,-0.077c0.133,-0.051 0.238,-0.139 0.314,-0.264c0.075,-0.125 0.113,-0.281 0.113,-0.468c0,-0.21 -0.05,-0.379 -0.149,-0.508c-0.1,-0.13 -0.24,-0.211 -0.421,-0.245c-0.091,-0.014 -0.363,-0.021 -0.816,-0.021l-0.873,0l0,1.583Z" style="fill:white;fill-rule:nonzero;"/>
            <path d="M105.477,267.515l0,-6.239l4.105,0l0,1.056l-2.987,0l0,1.383l2.78,0l0,1.051l-2.78,0l0,1.698l3.093,0l0,1.051l-4.211,0Z" style="fill:white;fill-rule:nonzero;"/>
            <path d="M115.092,266.723c0.275,0.222 0.573,0.398 0.895,0.528l-0.411,0.889c-0.169,-0.056 -0.334,-0.134 -0.495,-0.234c-0.035,-0.019 -0.283,-0.204 -0.744,-0.553c-0.363,0.179 -0.764,0.268 -1.205,0.268c-0.851,0 -1.517,-0.282 -1.999,-0.847c-0.483,-0.564 -0.724,-1.357 -0.724,-2.378c0,-1.019 0.242,-1.811 0.725,-2.377c0.484,-0.566 1.14,-0.849 1.968,-0.849c0.821,0 1.471,0.283 1.952,0.849c0.481,0.566 0.722,1.358 0.722,2.377c0,0.539 -0.067,1.012 -0.2,1.421c-0.101,0.312 -0.262,0.614 -0.484,0.906ZM114.193,266.013c0.144,-0.19 0.251,-0.42 0.323,-0.69c0.072,-0.269 0.108,-0.578 0.108,-0.927c0,-0.721 -0.141,-1.259 -0.423,-1.615c-0.282,-0.357 -0.651,-0.535 -1.107,-0.535c-0.455,0 -0.825,0.179 -1.108,0.537c-0.283,0.357 -0.425,0.895 -0.425,1.613c0,0.729 0.142,1.274 0.425,1.636c0.283,0.362 0.641,0.542 1.074,0.542c0.162,0 0.314,-0.029 0.457,-0.089c-0.226,-0.167 -0.457,-0.298 -0.691,-0.391l0.314,-0.72c0.367,0.142 0.718,0.355 1.053,0.639Z" style="fill:white;fill-rule:nonzero;"/>
            <path d="M135.21,267.515l0,-6.239l4.026,0l0,1.056l-2.84,0l0,1.476l2.452,0l0,1.056l-2.452,0l0,2.651l-1.186,0Z" style="fill:white;fill-rule:nonzero;"/>
            <path d="M140.198,267.515l0,-6.239l1.775,0l1.066,4.256l1.053,-4.256l1.779,0l0,6.239l-1.101,0l0,-4.911l-1.166,4.911l-1.142,0l-1.162,-4.911l0,4.911l-1.102,0Z" style="fill:white;fill-rule:nonzero;"/>
            <path d="M164.211,267.441l0,-6.436l1.143,0l0,5.343l2.843,0l0,1.093l-3.986,0Z" style="fill:white;fill-rule:nonzero;"/>
            <path d="M169.011,267.441l0,-6.489l4.198,0l0,1.098l-3.055,0l0,1.438l2.843,0l0,1.094l-2.843,0l0,1.766l3.163,0l0,1.093l-4.306,0Z" style="fill:white;fill-rule:nonzero;"/>
            <path d="M175.731,267.441l-2.024,-6.489l1.24,0l1.433,4.803l1.386,-4.803l1.213,0l-2.028,6.489l-1.22,0Z" style="fill:white;fill-rule:nonzero;"/>
            <path d="M179.562,267.441l0,-6.489l4.198,0l0,1.098l-3.055,0l0,1.438l2.842,0l0,1.094l-2.842,0l0,1.766l3.163,0l0,1.093l-4.306,0Z" style="fill:white;fill-rule:nonzero;"/>
            <path d="M184.868,267.441l0,-6.436l1.143,0l0,5.343l2.842,0l0,1.093l-3.985,0Z" style="fill:white;fill-rule:nonzero;"/>
            <path d="M91.032,209.494l1.191,-0.068c0.017,0.414 0.082,0.693 0.195,0.838c0.183,0.236 0.521,0.354 1.013,0.354c0.41,0 0.706,-0.08 0.889,-0.24c0.183,-0.161 0.274,-0.354 0.274,-0.58c0,-0.197 -0.075,-0.363 -0.224,-0.499c-0.105,-0.1 -0.394,-0.261 -0.866,-0.485c-0.472,-0.223 -0.817,-0.41 -1.034,-0.559c-0.217,-0.15 -0.388,-0.344 -0.513,-0.583c-0.124,-0.238 -0.186,-0.518 -0.186,-0.838c0,-0.559 0.185,-1.022 0.556,-1.391c0.371,-0.369 0.908,-0.553 1.611,-0.553c0.714,0 1.267,0.183 1.659,0.548c0.391,0.366 0.606,0.852 0.645,1.46l-1.2,0.058c-0.03,-0.317 -0.135,-0.56 -0.315,-0.729c-0.18,-0.169 -0.446,-0.254 -0.797,-0.254c-0.346,0 -0.593,0.067 -0.742,0.2c-0.148,0.132 -0.222,0.3 -0.222,0.503c0,0.19 0.068,0.347 0.204,0.471c0.135,0.127 0.436,0.3 0.901,0.521c0.7,0.329 1.146,0.597 1.337,0.802c0.285,0.302 0.427,0.69 0.427,1.164c0,0.587 -0.212,1.087 -0.637,1.503c-0.425,0.415 -1.017,0.623 -1.775,0.623c-0.523,0 -0.976,-0.096 -1.36,-0.288c-0.383,-0.192 -0.654,-0.459 -0.811,-0.8c-0.158,-0.341 -0.232,-0.734 -0.22,-1.178Z" style="fill:white;fill-rule:nonzero;"/>
            <path d="M96.545,211.646l1.275,-6.643l1.25,0l-1.059,5.533l3.097,0l-0.211,1.11l-4.352,0Z" style="fill:white;fill-rule:nonzero;"/>
            <path d="M102.101,209.041c0,-0.393 0.054,-0.807 0.162,-1.242c0.141,-0.583 0.356,-1.089 0.645,-1.518c0.289,-0.429 0.654,-0.768 1.094,-1.017c0.44,-0.249 0.941,-0.374 1.503,-0.374c0.753,0 1.361,0.255 1.825,0.766c0.464,0.511 0.696,1.187 0.696,2.03c0,0.701 -0.151,1.379 -0.453,2.035c-0.302,0.655 -0.711,1.16 -1.229,1.513c-0.518,0.353 -1.103,0.53 -1.756,0.53c-0.568,0 -1.044,-0.14 -1.429,-0.421c-0.384,-0.281 -0.657,-0.629 -0.818,-1.045c-0.16,-0.415 -0.24,-0.834 -0.24,-1.257ZM103.338,209.014c0,0.456 0.127,0.838 0.382,1.146c0.255,0.308 0.589,0.462 1.005,0.462c0.337,0 0.662,-0.121 0.973,-0.364c0.312,-0.244 0.569,-0.612 0.773,-1.106c0.203,-0.494 0.305,-0.975 0.305,-1.443c0,-0.523 -0.129,-0.933 -0.386,-1.231c-0.258,-0.297 -0.586,-0.446 -0.984,-0.446c-0.612,0 -1.11,0.311 -1.493,0.934c-0.383,0.622 -0.575,1.305 -0.575,2.048Z" style="fill:white;fill-rule:nonzero;"/>
            <path d="M109.57,211.646l-1.254,0l1.275,-6.643l2.474,0c0.44,0 0.789,0.057 1.045,0.17c0.256,0.114 0.458,0.301 0.608,0.562c0.149,0.262 0.224,0.573 0.224,0.936c0,0.335 -0.059,0.662 -0.178,0.979c-0.12,0.317 -0.266,0.571 -0.439,0.761c-0.173,0.19 -0.359,0.335 -0.558,0.433c-0.199,0.098 -0.468,0.173 -0.805,0.224c-0.197,0.03 -0.565,0.045 -1.105,0.045l-0.801,0l-0.486,2.533ZM110.263,208.012l0.387,0c0.661,0 1.103,-0.045 1.324,-0.136c0.221,-0.09 0.396,-0.235 0.523,-0.435c0.127,-0.199 0.191,-0.418 0.191,-0.657c0,-0.16 -0.032,-0.291 -0.097,-0.394c-0.065,-0.103 -0.157,-0.177 -0.274,-0.224c-0.118,-0.047 -0.38,-0.07 -0.787,-0.07l-0.897,0l-0.37,1.916Z" style="fill:white;fill-rule:nonzero;"/>
            <path d="M113.992,211.646l1.27,-6.643l4.514,0l-0.212,1.111l-3.259,0l-0.291,1.509l3.151,0l-0.212,1.11l-3.151,0l-0.382,1.803l3.542,0l-0.216,1.11l-4.754,0Z" style="fill:white;fill-rule:nonzero;"/>
            <path d="M157.457,211.947l0,-1.348c0.659,0.354 1.222,0.531 1.691,0.531c0.327,0 0.586,-0.094 0.775,-0.282c0.188,-0.187 0.283,-0.442 0.283,-0.764c0,-0.255 -0.06,-0.47 -0.178,-0.645c-0.119,-0.176 -0.343,-0.383 -0.674,-0.624l-0.409,-0.292c-0.548,-0.397 -0.935,-0.776 -1.161,-1.139c-0.226,-0.363 -0.339,-0.787 -0.339,-1.271c0,-0.648 0.185,-1.169 0.556,-1.561c0.37,-0.393 0.86,-0.59 1.469,-0.59c0.488,0 1.037,0.091 1.649,0.271l0,1.258c-0.625,-0.301 -1.12,-0.451 -1.484,-0.451c-0.281,0 -0.506,0.081 -0.676,0.242c-0.169,0.161 -0.254,0.372 -0.254,0.634c0,0.216 0.06,0.405 0.178,0.568c0.118,0.163 0.342,0.363 0.67,0.6l0.438,0.313c0.589,0.425 0.996,0.816 1.219,1.174c0.223,0.357 0.335,0.792 0.335,1.306c0,0.729 -0.211,1.3 -0.633,1.715c-0.421,0.414 -1.003,0.621 -1.744,0.621c-0.49,0 -1.061,-0.089 -1.711,-0.266Z" style="fill:white;fill-rule:nonzero;"/>
            <path d="M162.636,212.016l0,-7.857l1.686,0l1.472,5.527l1.517,-5.527l1.479,0l0,7.857l-1.174,0l0,-5.93l-1.492,5.405l-1.025,0l-1.463,-5.485l0,6.01l-1,0Z" style="fill:white;fill-rule:nonzero;"/>
            <path d="M173.002,212.213c-0.929,0 -1.671,-0.375 -2.228,-1.126c-0.556,-0.75 -0.835,-1.75 -0.835,-2.999c0,-1.264 0.28,-2.267 0.839,-3.011c0.56,-0.743 1.315,-1.115 2.265,-1.115c0.945,0 1.698,0.372 2.259,1.115c0.561,0.744 0.841,1.742 0.841,2.995c0,1.281 -0.28,2.291 -0.841,3.031c-0.561,0.74 -1.327,1.11 -2.3,1.11ZM173.019,211.13c0.545,0 0.977,-0.276 1.295,-0.826c0.319,-0.55 0.478,-1.296 0.478,-2.238c0,-0.913 -0.16,-1.646 -0.48,-2.198c-0.319,-0.552 -0.742,-0.828 -1.269,-0.828c-0.531,0 -0.956,0.276 -1.275,0.828c-0.318,0.552 -0.477,1.29 -0.477,2.214c0,0.917 0.158,1.654 0.475,2.211c0.317,0.558 0.735,0.837 1.253,0.837Z" style="fill:white;fill-rule:nonzero;"/>
            <path d="M179.971,212.213c-0.929,0 -1.672,-0.375 -2.228,-1.126c-0.557,-0.75 -0.835,-1.75 -0.835,-2.999c0,-1.264 0.28,-2.267 0.839,-3.011c0.559,-0.743 1.314,-1.115 2.265,-1.115c0.945,0 1.698,0.372 2.259,1.115c0.56,0.744 0.841,1.742 0.841,2.995c0,1.281 -0.281,2.291 -0.841,3.031c-0.561,0.74 -1.328,1.11 -2.3,1.11ZM179.987,211.13c0.546,0 0.978,-0.276 1.296,-0.826c0.318,-0.55 0.477,-1.296 0.477,-2.238c0,-0.913 -0.16,-1.646 -0.479,-2.198c-0.32,-0.552 -0.743,-0.828 -1.269,-0.828c-0.532,0 -0.957,0.276 -1.275,0.828c-0.318,0.552 -0.478,1.29 -0.478,2.214c0,0.917 0.159,1.654 0.476,2.211c0.317,0.558 0.734,0.837 1.252,0.837Z" style="fill:white;fill-rule:nonzero;"/>
            <path d="M185.774,212.016l0,-6.78l-2.191,0l0,-1.077l5.658,0l0,1.077l-2.19,0l0,6.78l-1.277,0Z" style="fill:white;fill-rule:nonzero;"/>
            <path d="M190.097,212.016l0,-7.857l1.273,0l0,3.191l2.53,0l0,-3.191l1.273,0l0,7.857l-1.273,0l0,-3.583l-2.53,0l0,3.583l-1.273,0Z" style="fill:white;fill-rule:nonzero;"/>
            <path d="M6.57,68.609l0,-5.026l1.023,0l0,4.172l2.544,0l0,0.854l-3.567,0Z" style="fill:white;fill-rule:nonzero;"/>
            <path d="M10.866,68.609l0,-5.068l1.642,0c0.622,0 1.028,0.026 1.217,0.076c0.29,0.076 0.533,0.242 0.729,0.496c0.196,0.255 0.294,0.584 0.294,0.987c0,0.311 -0.056,0.573 -0.169,0.785c-0.113,0.212 -0.257,0.378 -0.431,0.499c-0.174,0.121 -0.35,0.201 -0.53,0.241c-0.244,0.048 -0.598,0.072 -1.061,0.072l-0.667,0l0,1.912l-1.024,0ZM11.89,64.399l0,1.437l0.56,0c0.403,0 0.672,-0.026 0.808,-0.079c0.136,-0.053 0.243,-0.136 0.32,-0.249c0.077,-0.113 0.116,-0.244 0.116,-0.394c0,-0.184 -0.054,-0.336 -0.163,-0.456c-0.108,-0.12 -0.245,-0.195 -0.411,-0.225c-0.122,-0.023 -0.367,-0.034 -0.736,-0.034l-0.494,0Z" style="fill:white;fill-rule:nonzero;"/>
            <path d="M6.546,76.609l0,-5.068l1.023,0l0,1.995l2.005,0l0,-1.995l1.023,0l0,5.068l-1.023,0l0,-2.216l-2.005,0l0,2.216l-1.023,0Z" style="fill:white;fill-rule:nonzero;"/>
            <path d="M11.651,71.541l1.87,0c0.422,0 0.743,0.033 0.964,0.097c0.298,0.088 0.552,0.243 0.764,0.467c0.212,0.223 0.374,0.497 0.484,0.821c0.111,0.323 0.166,0.723 0.166,1.197c0,0.417 -0.052,0.777 -0.155,1.079c-0.127,0.369 -0.308,0.667 -0.543,0.895c-0.177,0.173 -0.417,0.308 -0.719,0.405c-0.226,0.071 -0.528,0.107 -0.906,0.107l-1.925,0l0,-5.068ZM12.674,72.399l0,3.356l0.764,0c0.286,0 0.492,-0.016 0.619,-0.049c0.166,-0.041 0.303,-0.111 0.413,-0.21c0.109,-0.099 0.199,-0.262 0.268,-0.489c0.069,-0.227 0.103,-0.537 0.103,-0.929c0,-0.391 -0.034,-0.692 -0.103,-0.902c-0.069,-0.209 -0.166,-0.373 -0.291,-0.491c-0.124,-0.117 -0.282,-0.197 -0.473,-0.238c-0.143,-0.032 -0.423,-0.048 -0.84,-0.048l-0.46,0Z" style="fill:white;fill-rule:nonzero;"/>
            <path d="M6.57,101.609l0,-5.026l1.023,0l0,4.172l2.544,0l0,0.854l-3.567,0Z" style="fill:white;fill-rule:nonzero;"/>
            <path d="M10.659,99.106c0,-0.516 0.077,-0.949 0.232,-1.3c0.115,-0.258 0.272,-0.489 0.471,-0.694c0.2,-0.205 0.418,-0.358 0.655,-0.457c0.316,-0.133 0.68,-0.2 1.093,-0.2c0.746,0 1.344,0.232 1.792,0.695c0.448,0.463 0.672,1.107 0.672,1.932c0,0.818 -0.222,1.458 -0.667,1.92c-0.445,0.462 -1.039,0.693 -1.783,0.693c-0.754,0 -1.353,-0.23 -1.798,-0.69c-0.445,-0.459 -0.667,-1.092 -0.667,-1.899ZM11.713,99.072c0,0.573 0.133,1.008 0.398,1.304c0.265,0.297 0.601,0.445 1.009,0.445c0.408,0 0.743,-0.147 1.004,-0.441c0.262,-0.294 0.393,-0.735 0.393,-1.322c0,-0.581 -0.128,-1.014 -0.382,-1.3c-0.255,-0.286 -0.593,-0.429 -1.015,-0.429c-0.422,0 -0.761,0.145 -1.02,0.434c-0.258,0.289 -0.387,0.726 -0.387,1.309Z" style="fill:white;fill-rule:nonzero;"/>
            <path d="M5.909,109.501l0,-5.067l1.532,0l0.919,3.456l0.909,-3.456l1.535,0l0,5.067l-0.951,0l0,-3.989l-1.005,3.989l-0.986,0l-1.002,-3.989l0,3.989l-0.951,0Z" style="fill:white;fill-rule:nonzero;"/>
            <path d="M11.817,104.434l1.87,0c0.421,0 0.743,0.032 0.964,0.096c0.297,0.088 0.552,0.244 0.764,0.467c0.212,0.224 0.373,0.497 0.484,0.821c0.111,0.324 0.166,0.723 0.166,1.198c0,0.417 -0.052,0.776 -0.156,1.078c-0.126,0.369 -0.307,0.667 -0.542,0.895c-0.178,0.173 -0.417,0.308 -0.719,0.405c-0.226,0.071 -0.528,0.107 -0.906,0.107l-1.925,0l0,-5.067ZM12.84,105.291l0,3.356l0.764,0c0.286,0 0.492,-0.016 0.618,-0.048c0.166,-0.042 0.304,-0.112 0.414,-0.211c0.109,-0.099 0.198,-0.262 0.267,-0.489c0.07,-0.227 0.104,-0.536 0.104,-0.928c0,-0.392 -0.034,-0.693 -0.104,-0.902c-0.069,-0.21 -0.165,-0.374 -0.29,-0.491c-0.124,-0.118 -0.282,-0.197 -0.473,-0.239c-0.143,-0.032 -0.423,-0.048 -0.84,-0.048l-0.46,0Z" style="fill:white;fill-rule:nonzero;"/>
            <path d="M7.337,117.882l0,-5.068l1.023,0l0,1.995l2.005,0l0,-1.995l1.023,0l0,5.068l-1.023,0l0,-2.216l-2.005,0l0,2.216l-1.023,0Z" style="fill:white;fill-rule:nonzero;"/>
            <rect x="12.415" y="112.814" width="1.023" height="5.067" style="fill:white;fill-rule:nonzero;"/>
            <path d="M19.945,133.175l0,-7.361l2.424,0c0.609,0 1.052,0.066 1.328,0.199c0.276,0.132 0.497,0.367 0.663,0.705c0.166,0.338 0.249,0.725 0.249,1.16c0,0.552 -0.126,1.008 -0.377,1.368c-0.252,0.36 -0.628,0.587 -1.128,0.68c0.249,0.188 0.454,0.394 0.616,0.618c0.162,0.224 0.381,0.622 0.655,1.195l0.697,1.436l-1.377,0l-0.833,-1.602c-0.295,-0.572 -0.497,-0.933 -0.606,-1.082c-0.109,-0.149 -0.225,-0.251 -0.346,-0.306c-0.122,-0.055 -0.315,-0.083 -0.58,-0.083l-0.233,0l0,3.073l-1.152,0ZM21.097,128.927l0.851,0c0.553,0 0.898,-0.03 1.035,-0.09c0.137,-0.06 0.245,-0.164 0.323,-0.311c0.078,-0.148 0.117,-0.332 0.117,-0.553c0,-0.247 -0.052,-0.447 -0.154,-0.6c-0.103,-0.152 -0.247,-0.248 -0.434,-0.288c-0.093,-0.017 -0.373,-0.025 -0.84,-0.025l-0.898,0l0,1.867Z" style="fill:white;fill-rule:nonzero;"/>
            <path d="M30.836,133.175l-1.253,0l-0.498,-1.672l-2.279,0l-0.47,1.672l-1.222,0l2.221,-7.361l1.218,0l2.283,7.361ZM28.716,130.263l-0.786,-2.732l-0.77,2.732l1.556,0Z" style="fill:white;fill-rule:nonzero;"/>
            <path d="M31.458,133.175l0,-7.361l1.12,0l2.334,4.916l0,-4.916l1.069,0l0,7.361l-1.155,0l-2.298,-4.8l0,4.8l-1.07,0Z" style="fill:white;fill-rule:nonzero;"/>
            <path d="M39.851,130.469l0,-1.241l2.482,0l0,2.933c-0.241,0.301 -0.591,0.566 -1.049,0.795c-0.457,0.23 -0.921,0.344 -1.39,0.344c-0.596,0 -1.116,-0.161 -1.56,-0.484c-0.443,-0.323 -0.776,-0.785 -0.999,-1.386c-0.223,-0.601 -0.335,-1.254 -0.335,-1.961c0,-0.766 0.125,-1.447 0.374,-2.043c0.249,-0.596 0.613,-1.053 1.093,-1.371c0.365,-0.244 0.82,-0.366 1.365,-0.366c0.708,0 1.261,0.191 1.659,0.575c0.398,0.383 0.654,0.913 0.768,1.589l-1.144,0.276c-0.08,-0.362 -0.231,-0.647 -0.453,-0.856c-0.222,-0.209 -0.498,-0.314 -0.83,-0.314c-0.503,0 -0.903,0.206 -1.2,0.618c-0.297,0.411 -0.445,1.022 -0.445,1.832c0,0.874 0.15,1.529 0.451,1.966c0.301,0.437 0.695,0.655 1.182,0.655c0.241,0 0.483,-0.061 0.725,-0.183c0.243,-0.122 0.451,-0.27 0.625,-0.445l0,-0.933l-1.319,0Z" style="fill:white;fill-rule:nonzero;"/>
            <path d="M43.394,133.175l0,-7.361l4.228,0l0,1.246l-3.076,0l0,1.631l2.862,0l0,1.24l-2.862,0l0,2.004l3.185,0l0,1.24l-4.337,0Z" style="fill:white;fill-rule:nonzero;"/>
            <path d="M91.226,131.91l0,-9.185l5.061,0l0,1.554l-3.571,0l0,2.174l3.083,0l0,1.554l-3.083,0l0,3.903l-1.49,0Z" style="fill:white;fill-rule:nonzero;"/>
            <path d="M97.521,131.91l0,-9.185l3.138,0c0.789,0 1.362,0.082 1.72,0.247c0.357,0.165 0.644,0.459 0.858,0.881c0.215,0.422 0.323,0.904 0.323,1.447c0,0.689 -0.163,1.258 -0.489,1.707c-0.325,0.449 -0.812,0.732 -1.46,0.849c0.322,0.234 0.588,0.491 0.798,0.771c0.21,0.28 0.493,0.777 0.849,1.491l0.901,1.792l-1.783,0l-1.078,-1.999c-0.382,-0.714 -0.644,-1.164 -0.785,-1.35c-0.141,-0.186 -0.291,-0.313 -0.449,-0.382c-0.157,-0.069 -0.407,-0.103 -0.75,-0.103l-0.302,0l0,3.834l-1.491,0ZM99.012,126.609l1.103,0c0.715,0 1.162,-0.037 1.34,-0.112c0.177,-0.075 0.317,-0.205 0.418,-0.389c0.1,-0.184 0.151,-0.413 0.151,-0.689c0,-0.309 -0.067,-0.559 -0.199,-0.749c-0.133,-0.19 -0.32,-0.31 -0.562,-0.36c-0.121,-0.021 -0.483,-0.031 -1.088,-0.031l-1.163,0l0,2.33Z" style="fill:white;fill-rule:nonzero;"/>
            <path d="M104.965,131.91l0,-9.185l5.474,0l0,1.554l-3.983,0l0,2.036l3.706,0l0,1.548l-3.706,0l0,2.499l4.124,0l0,1.548l-5.615,0Z" style="fill:white;fill-rule:nonzero;"/>
            <path d="M117.787,130.745c0.366,0.326 0.764,0.584 1.194,0.777l-0.549,1.309c-0.225,-0.083 -0.445,-0.198 -0.66,-0.344c-0.047,-0.03 -0.377,-0.301 -0.992,-0.815c-0.483,0.263 -1.019,0.395 -1.606,0.395c-1.135,0 -2.024,-0.416 -2.667,-1.247c-0.643,-0.831 -0.965,-1.999 -0.965,-3.503c0,-1.499 0.323,-2.666 0.967,-3.499c0.645,-0.833 1.52,-1.25 2.624,-1.25c1.095,0 1.963,0.417 2.604,1.25c0.641,0.833 0.962,2 0.962,3.499c0,0.794 -0.089,1.492 -0.267,2.093c-0.134,0.46 -0.349,0.904 -0.645,1.335ZM116.589,129.698c0.191,-0.28 0.335,-0.618 0.43,-1.015c0.096,-0.396 0.144,-0.852 0.144,-1.366c0,-1.06 -0.188,-1.853 -0.564,-2.377c-0.376,-0.525 -0.868,-0.787 -1.476,-0.787c-0.607,0 -1.1,0.264 -1.478,0.79c-0.378,0.526 -0.567,1.318 -0.567,2.374c0,1.074 0.189,1.877 0.567,2.41c0.378,0.532 0.855,0.798 1.433,0.798c0.215,0 0.418,-0.043 0.609,-0.131c-0.302,-0.247 -0.609,-0.439 -0.921,-0.577l0.418,-1.058c0.49,0.208 0.958,0.522 1.405,0.939Z" style="fill:white;fill-rule:nonzero;"/>
            <path d="M169.679,125.193l0,-8.044l4.767,0l0,1.361l-3.363,0l0,1.904l2.903,0l0,1.361l-2.903,0l0,3.418l-1.404,0Z" style="fill:white;fill-rule:nonzero;"/>
            <path d="M175.585,125.193l0,-8.044l2.101,0l1.262,5.487l1.247,-5.487l2.106,0l0,8.044l-1.304,0l0,-6.332l-1.381,6.332l-1.351,0l-1.376,-6.332l0,6.332l-1.304,0Z" style="fill:white;fill-rule:nonzero;"/>
            <g>
                <path d="M75.771,21.496l1.935,-0.413l0,0.57c0,2.303 -0.462,3.791 -1.386,4.466c-0.924,0.675 -2.968,1.012 -6.132,1.012c-3.59,0 -5.799,-0.533 -6.625,-1.6c-0.827,-1.066 -1.24,-3.918 -1.24,-8.556c0,-2.731 0.56,-4.527 1.68,-5.388c1.12,-0.86 3.461,-1.29 7.025,-1.29c2.595,0 4.328,0.353 5.199,1.06c0.871,0.707 1.306,2.111 1.306,4.212l0.013,0.376l-2.051,-0.173l-1.415,-0.252c0,-1.082 -0.224,-1.775 -0.673,-2.078c-0.449,-0.303 -1.473,-0.455 -3.072,-0.455c-2.142,0 -2.913,1.274 -3.344,1.751c-0.431,0.476 -0.671,1.779 -0.671,4.131c0,3.167 0.556,3.624 1.055,4.114c0.514,0.504 0.671,1.458 2.786,1.458c1.715,0 2.829,-0.162 3.34,-0.485c0.511,-0.323 0.766,-1.034 0.766,-2.133l1.504,-0.327Z" style="fill:rgb(184,149,98);fill-rule:nonzero;"/>
                <path d="M95.864,10.442l-7.725,10.229l0.275,6.416l-3.007,-0.05l0.169,-6.366l-7.489,-10.229l2.835,0l5.391,7.838l1.358,-0.01l5.403,-7.844l2.79,0.016Z" style="fill:rgb(184,149,98);fill-rule:nonzero;"/>
                <path d="M117.378,10.367l-0.574,13.807l8.531,0l0,2.812l-11.984,0l0.626,-15.122l3.401,-1.497Z" style="fill:rgb(184,149,98);fill-rule:nonzero;"/>
                <path d="M130.174,13.084l0,2.337l8.531,0.513l0,2.058l-8.531,-0.463l0,6.815l9.078,0l0,2.642l-12.531,0l0,-16.544l12.451,0l0,2.642l-8.998,0Z" style="fill:rgb(184,149,98);fill-rule:nonzero;"/>
                <path d="M155.328,15.266c0,0 -3.399,-0.267 -3.399,-0.34c-0.08,-0.929 -0.307,-1.512 -0.68,-1.751c-0.373,-0.238 -1.253,-0.357 -2.639,-0.357c-1.635,0 -1.955,0.137 -2.457,0.412c-0.502,0.274 -0.753,0.852 -0.753,1.733c0,1.042 0.204,1.668 0.613,1.878c0.409,0.21 1.01,0.372 3.303,0.485c2.711,0.138 4.464,0.489 5.259,1.055c0.795,0.565 1.193,1.741 1.193,3.526c0,2.198 -0.467,3.618 -1.4,4.261c-0.933,0.642 -2.99,0.963 -6.172,0.963c-2.861,0 -4.761,-0.315 -5.698,-0.945c-0.938,-0.63 -1.407,-1.907 -1.407,-3.83l-0.013,-0.606l3.373,0.351c0,1.156 0.222,1.863 0.666,2.121c0.445,0.259 1.658,0.388 3.639,0.388c1.547,0 1.633,-0.149 2.059,-0.448c0.427,-0.299 0.64,-0.99 0.64,-2.073c0,-0.8 -0.162,-1.331 -0.487,-1.593c-0.324,-0.263 -0.123,-0.423 -1.199,-0.479l-1.906,-0.109c-2.879,-0.154 -4.719,-0.517 -5.519,-1.091c-0.799,-0.574 -1.199,-1.806 -1.199,-3.697c0,-1.931 0.482,-3.217 1.446,-3.86c0.964,-0.642 2.891,-0.963 5.779,-0.963c2.737,0 4.581,0.295 5.532,0.884c0.951,0.59 1.426,1.742 1.426,3.455l0,0.63Z" style="fill:rgb(184,149,98);fill-rule:nonzero;"/>
            </g>
            <path d="M108.771,21.496l1.935,-0.413l0,0.57c0,2.303 -0.462,3.791 -1.386,4.466c-0.924,0.675 -2.968,1.012 -6.132,1.012c-3.59,0 -5.799,-0.533 -6.625,-1.6c-0.827,-1.066 -1.24,-3.918 -1.24,-8.556c0,-2.731 0.56,-4.527 1.68,-5.388c1.12,-0.86 3.461,-1.29 7.025,-1.29c2.595,0 4.328,0.353 5.199,1.06c0.871,0.707 1.306,2.111 1.306,4.212l0.013,0.376l-2.051,-0.173l-1.415,-0.252c0,-1.082 -0.224,-1.775 -0.673,-2.078c-0.449,-0.303 -1.473,-0.455 -3.072,-0.455c-2.142,0 -2.913,1.274 -3.344,1.751c-0.431,0.476 -0.671,1.779 -0.671,4.131c0,3.167 0.556,3.624 1.055,4.114c0.514,0.504 0.671,1.458 2.786,1.458c1.715,0 2.829,-0.162 3.34,-0.485c0.511,-0.323 0.766,-1.034 0.766,-2.133l1.504,-0.327Z" style="fill:rgb(184,149,98);fill-rule:nonzero;"/>
        </g>
    </g>
</svg>
